ply
format ascii 1.0
comment Generated by the CGAL library
element vertex 26
property double x
property double y
property double z
element face 25
property list uchar int vertex_indices
end_header
0 0 0 
1 3 0 
1 0 1 
0 5 1 
1 2 1 
1.5 3 1 
2 2 1 
2 3.5 1 
3 3 1 
3 4 1 
1.5 4 1 
1 4 1 
2 5 1 
1 0 0 
0 0 1 
1 2 0 
2 2 0 
3 3 0 
3 4 0 
2 5 0 
0 5 0 
1 4 0 
1 3 1 
1.5 4 0 
2 3.5 0 
1.5 3 0 
6 0 20 21 1 15 13 
4 15 1 25 16 
4 16 25 24 17 
3 17 24 18 
4 18 24 23 19 
4 21 20 19 23 
6 3 14 2 4 22 11 
4 22 4 6 5 
4 5 6 8 7 
3 7 8 9 
4 7 9 12 10 
4 3 11 10 12 
4 14 0 13 2 
4 2 13 15 4 
4 4 15 16 6 
4 6 16 17 8 
4 8 17 18 9 
4 9 18 19 12 
4 12 19 20 3 
4 3 20 0 14 
4 22 1 21 11 
4 11 21 23 10 
4 10 23 24 7 
4 7 24 25 5 
4 5 25 1 22 
